<svg width="475" height="130" viewBox="0 0 475 130" fill="none" xmlns="http://www.w3.org/2000/svg">
<g clip-path="url(#clip0_9_57)">
<path d="M449.612 61.7158L475 128.928C467.518 127.859 460.04 126.521 452.426 125.315L438.124 88.1777L423.429 122.249C416.216 121.043 409.132 120.642 401.918 119.705L427.705 60.9168L404.317 0.661133H425.964L439.056 34.3269L453.088 0.661133H474.996L449.612 61.7158ZM387.224 0.661133H367.582V117.17C373.995 117.572 380.673 117.837 387.224 118.636V0.661133ZM350.612 115.832C332.711 114.63 314.804 113.566 296.501 113.16V0.661649H316.54V94.1887C328.033 94.454 339.521 95.3863 350.612 95.9205V115.832ZM275.118 46.2256V66.265H247.729V111.825H227.959V0.661133H284.076V20.7006H247.734V46.2261H275.123L275.118 46.2256ZM194.285 20.7006V112.894C187.602 112.894 180.792 112.894 174.241 113.16V20.7006H153.531V0.661133H215.123V20.7006H194.285ZM131.888 67.3299C123.072 67.3299 112.648 67.3299 105.166 67.7361V97.5279C116.923 96.7242 128.681 95.792 140.571 95.3904V114.63L85.1262 119.043V0.661133H140.567V20.7006H105.165V47.692C112.917 47.692 124.807 47.2905 131.887 47.2905V67.334L131.888 67.3299ZM20.8515 56.1064V126.119C13.6429 126.922 7.22516 127.859 0.414062 128.928V0.661133H19.5218L45.5733 73.4829V0.661133H65.6169V120.642C58.5363 121.848 51.3195 122.249 43.7047 123.314L20.8515 56.1064Z" fill="#1F3E72"/>
</g>
<defs>
<clipPath id="clip0_9_57">
<rect width="474.586" height="128.518" fill="white" transform="translate(0.414062 0.535156)"/>
</clipPath>
</defs>
</svg>
