<svg width="532" height="167" viewBox="0 0 532 167" fill="none" xmlns="http://www.w3.org/2000/svg">
<g clip-path="url(#clip0_9_44)">
<path d="M280.413 42.5956C280.413 48.5642 275.604 53.3703 269.635 53.3703C263.667 53.3703 258.861 48.5642 258.861 42.5956C258.861 36.627 263.503 31.8209 269.635 31.8209C275.773 31.9865 280.413 36.7942 280.413 42.5956ZM235.983 64.3139V66.9669C235.983 66.9669 230.846 60.3325 219.904 60.3325C201.836 60.3325 187.742 74.0932 187.742 93.1567C187.742 112.056 201.67 125.981 219.904 125.981C231.011 125.981 235.983 119.184 235.983 119.184V122.001C235.983 123.328 236.98 124.32 238.305 124.32H251.731V61.9854H238.305C236.98 61.9903 235.983 63.1529 235.983 64.3139ZM235.983 104.264C233.499 107.913 228.524 111.063 222.557 111.063C211.948 111.063 203.823 104.431 203.823 93.1567C203.823 81.8835 211.948 75.2524 222.557 75.2524C228.36 75.2524 233.664 78.568 235.983 82.0491V104.264ZM261.679 61.9903H277.593V124.325H261.679V61.9903ZM499.406 60.3309C488.464 60.3309 483.323 66.9653 483.323 66.9653V31.9865H467.41V124.325H480.839C482.166 124.325 483.158 123.164 483.158 122.003V119.186C483.158 119.186 488.298 125.983 499.237 125.983C517.308 125.983 531.399 112.061 531.399 93.1616C531.399 74.2621 517.308 60.3309 499.406 60.3309ZM496.753 110.895C490.617 110.895 485.811 107.749 483.323 104.099V81.8835C485.811 78.568 491.115 75.0868 496.753 75.0868C507.362 75.0868 515.485 81.7179 515.485 92.9911C515.485 104.264 507.363 110.895 496.753 110.895ZM459.123 87.357V124.49H443.206V89.1787C443.206 78.9025 439.89 74.7556 430.944 74.7556C426.138 74.7556 421.163 77.2431 418.008 80.8915V124.326H402.098V61.992H414.692C416.019 61.992 417.014 63.1529 417.014 64.3139V66.9669C421.656 62.1576 427.789 60.3325 433.921 60.3325C440.885 60.3325 446.689 62.3248 451.331 66.3028C456.965 70.9449 459.123 76.9119 459.123 87.357ZM363.466 60.3309C352.527 60.3309 347.386 66.9653 347.386 66.9653V31.9865H331.473V124.325H344.899C346.225 124.325 347.221 123.164 347.221 122.003V119.186C347.221 119.186 352.361 125.983 363.3 125.983C381.371 125.983 395.462 112.061 395.462 93.1616C395.627 74.2604 381.537 60.3309 363.466 60.3309ZM360.812 110.895C354.68 110.895 349.874 107.749 347.386 104.099V81.8835C349.874 78.568 355.178 75.0868 360.812 75.0868C371.425 75.0868 379.546 81.7179 379.546 92.9911C379.546 104.264 371.425 110.895 360.812 110.895ZM317.712 60.3309C322.518 60.3309 325.006 61.1623 325.006 61.1623V75.9149C325.006 75.9149 311.744 71.4384 303.456 80.8898V124.489H287.539V61.9903H300.969C302.295 61.9903 303.287 63.1513 303.287 64.3122V66.9653C306.275 63.4825 312.74 60.3309 317.712 60.3309ZM152.434 118.687C151.606 116.698 150.776 114.544 149.948 112.719C148.62 109.736 147.293 106.916 146.136 104.264L145.97 104.099C134.53 79.2304 122.264 54.0344 109.332 29.1695L108.835 28.1725C107.475 25.593 106.149 22.9955 104.859 20.3805C103.199 17.3945 101.543 14.2479 98.89 11.2619C93.5855 4.63084 85.9591 0.982422 77.8375 0.982422C69.547 0.982422 62.0879 4.63086 56.6194 10.9291C54.1319 13.9117 52.3069 17.0617 50.6508 20.0476C49.357 22.661 48.0314 25.2585 46.6745 27.8396L46.176 28.8366C33.4107 53.7014 20.9782 78.8992 9.53945 103.766L9.37221 104.095C8.21293 106.752 6.88472 109.569 5.55817 112.55C4.73011 114.375 3.90206 116.364 3.074 118.518C0.917745 124.651 0.253612 130.454 1.08498 136.424C2.90836 148.858 11.1955 159.299 22.636 163.944C26.9468 165.769 31.4233 166.597 36.0637 166.597C37.3903 166.597 39.0464 166.431 40.3746 166.264C45.8464 165.602 51.4822 163.78 56.954 160.63C63.7506 156.816 70.2161 151.348 77.5096 143.39C84.8031 151.348 91.4342 156.816 98.0653 160.63C103.539 163.78 109.173 165.602 114.643 166.264C115.969 166.433 117.629 166.597 118.955 166.597C123.598 166.597 128.238 165.769 132.382 163.944C143.988 159.299 152.109 148.693 153.934 136.424C155.251 130.623 154.588 124.823 152.434 118.687ZM77.6703 127.307C68.7173 116.034 62.9143 105.425 60.9269 96.4755C60.0989 92.6615 59.9316 89.346 60.4301 86.3617C60.7597 83.7086 61.7567 81.3867 63.0832 79.3977C66.2331 74.9245 71.5377 72.1042 77.6719 72.1042C83.8078 72.1042 89.278 74.7573 92.2623 79.3977C93.5888 81.3867 94.5825 83.7102 94.917 86.3617C95.4122 89.3476 95.2466 92.8271 94.4185 96.4755C92.4229 105.26 86.6199 115.87 77.6703 127.307ZM143.812 135.099C142.653 143.719 136.85 151.182 128.728 154.497C124.75 156.153 120.438 156.652 116.13 156.153C111.987 155.655 107.84 154.328 103.532 151.844C97.5635 148.525 91.5965 143.39 84.6326 135.762C95.5729 122.336 102.204 110.066 104.691 99.127C105.852 93.9864 106.02 89.346 105.519 85.0335C104.859 80.8899 103.365 77.0758 101.045 73.7603C95.9024 66.2978 87.2807 61.9903 77.6686 61.9903C68.0565 61.9903 59.4348 66.4668 54.2959 73.7603C51.9757 77.0758 50.4818 80.8899 49.8194 85.0335C49.157 89.346 49.3209 94.152 50.6475 99.127C53.1333 110.066 59.93 122.5 70.7047 135.927C63.908 143.554 57.7737 148.694 51.8051 152.01C47.4942 154.497 43.3523 155.824 39.2087 156.319C34.7339 156.818 30.4214 156.154 26.609 154.663C18.4874 151.348 12.6844 143.885 11.5251 135.265C11.0283 131.121 11.3579 126.978 13.0173 122.336C13.5125 120.676 14.3438 119.02 15.1719 117.031C16.3328 114.378 17.6561 111.558 18.9843 108.741L19.1516 108.411C30.5887 83.7086 42.8555 58.5108 55.6208 33.9772L56.1176 32.9802C57.4458 30.496 58.7724 27.8429 60.0973 25.3554C61.4238 22.7024 62.9143 20.2149 64.7393 18.0586C68.2205 14.0839 72.8609 11.926 78.0015 11.926C83.142 11.926 87.7825 14.0839 91.2636 18.0586C93.0887 20.2198 94.5791 22.7073 95.9057 25.3554C97.2339 27.8429 98.5605 30.496 99.8837 32.9802L100.382 33.9772C112.953 58.6127 125.057 83.4837 136.687 108.577V108.742C138.016 111.399 139.175 114.38 140.501 117.036C141.33 119.022 142.159 120.678 142.656 122.337C143.979 126.643 144.476 130.79 143.812 135.099Z" fill="#1F3E72"/>
</g>
<defs>
<clipPath id="clip0_9_44">
<rect width="530.816" height="165.615" fill="white" transform="translate(0.658203 0.984375)"/>
</clipPath>
</defs>
</svg>
