<svg width="343" height="184" viewBox="0 0 343 184" fill="none" xmlns="http://www.w3.org/2000/svg">
<g clip-path="url(#clip0_9_59)">
<path d="M184.171 8.36141C183.053 8.53378 181.979 12.6488 179.819 14.7925C178.24 16.3396 176.268 16.2428 175.221 18.1555C174.823 18.8701 174.952 20.0898 174.501 21.2609C173.619 23.6032 170.514 23.8126 170.514 26.3647C170.504 29.1207 173.104 29.6471 175.355 31.6026C177.112 33.1767 177.284 34.2619 179.411 35.0247C181.227 35.6428 183.929 33.6225 186.363 34.3479C188.361 34.9444 190.274 35.374 190.725 37.4263C191.123 39.3174 190.698 42.2505 188.275 41.9123C187.459 41.8209 183.918 40.6282 179.567 41.0901C174.318 41.6867 168.327 43.4 167.742 49.2511C167.42 52.5227 171.465 56.3802 175.371 55.5958C178.073 55.0636 176.795 51.8784 178.267 50.3309C180.195 48.3487 191.123 57.2505 201.282 57.2505C205.558 57.2505 208.739 56.1708 211.898 52.8613C212.193 52.6087 212.553 52.0662 213.01 52.0338C213.44 52.0662 214.192 52.4904 214.439 52.6731C222.621 59.2488 228.805 72.4383 258.874 72.5941C263.102 72.6153 267.921 74.6356 271.853 78.2242C275.362 81.4693 277.414 86.5136 279.407 91.6336C282.416 99.3164 287.81 106.789 295.986 115.106C296.432 115.552 303.164 120.784 303.701 121.177C303.787 121.23 304.281 122.412 304.11 123.073C303.911 128.059 303.185 142.558 313.994 143.214C316.638 143.348 315.945 141.489 315.945 140.211C315.94 137.686 315.477 135.177 316.81 132.593C318.631 129.036 312.947 127.398 313.114 119.71C313.232 113.977 308.418 114.955 305.973 110.587C304.566 108.057 303.314 106.714 303.406 103.619C303.954 86.2024 299.699 74.759 297.577 71.9494C295.922 69.8273 294.552 68.9839 296.067 68.0006C305.087 62.0427 307.134 56.4982 307.134 56.4982C311.931 45.2217 316.246 34.9225 322.193 30.3887C323.391 29.4535 326.464 27.1598 328.35 26.2571C333.899 23.6406 336.822 22.0561 338.434 20.487C340.985 17.9997 343 12.8154 340.556 9.67253C337.515 5.79353 332.255 8.87198 329.935 10.2471C313.35 20.0898 310.906 37.4529 305.162 47.4244C300.58 55.3914 293.128 61.2421 286.467 61.7203C281.47 62.0909 276.087 61.0809 270.725 58.7278C257.687 53.0117 250.552 45.6301 248.871 44.3248C245.368 41.6223 218.173 14.9267 196.14 13.8361C196.14 13.8361 193.406 8.3618 192.718 8.2704C191.106 8.06602 189.457 11.542 188.275 11.9454C187.163 12.3156 185.294 8.17862 184.171 8.36141ZM87.1778 167.691C85.1039 167.642 83.342 165.939 83.342 163.833L83.3474 95.1096H60.6974V170.866C60.6974 174.578 63.7056 177.608 67.3964 177.608H106.986C110.703 177.608 113.674 174.578 113.674 170.866V95.1096H91.046L91.0244 163.833C91.0244 165.939 89.2621 167.642 87.1778 167.691ZM163.014 95.1096H128.733C124.677 95.1096 121.373 98.4082 121.373 102.507V177.608H144.044V108.718C144.06 106.607 145.768 104.936 147.875 104.936C149.991 104.936 151.689 106.569 151.737 108.659V177.608H174.317V108.659C174.344 106.569 176.042 104.936 178.153 104.936C180.249 104.936 181.979 106.607 181.995 108.718V177.608H204.666V102.507C204.666 98.4082 201.357 95.1096 197.301 95.1096H163.014ZM30.3861 108.863C30.4023 106.569 28.5328 104.936 26.5503 104.936H22.7037V146.663H26.5503C28.549 146.663 30.4027 145.073 30.3861 142.79V108.863ZM45.5847 156.876H22.7037V177.608H0.0644531V95.1096H45.7301C49.8181 95.1096 53.0092 98.4298 53.0092 102.54V149.446C53.0092 153.561 49.6947 156.876 45.5847 156.876ZM282.357 159.159C277.806 159.159 273.986 163.092 273.986 167.857C273.986 172.639 277.806 176.539 282.502 176.539C287.16 176.539 290.931 172.639 290.931 167.857C290.931 163.081 287.16 159.159 282.501 159.159H282.357ZM292.553 167.83C292.553 173.433 288.062 177.99 282.502 177.99C276.882 177.99 272.369 173.466 272.369 167.83C272.369 162.302 276.882 157.682 282.335 157.682C288.062 157.682 292.553 162.163 292.553 167.83Z" fill="#1F3E72"/>
<path d="M281.455 167.184C283.029 167.184 283.856 166.626 283.856 165.508C283.856 164.514 283.056 164.004 281.525 164.004H281.073V167.184H281.455ZM287.252 173.706H284.549L281.073 169.081V173.706H278.865V162.011H281.186C284.34 162.011 286.016 163.204 286.016 165.481C286.016 167.002 285.028 168.35 283.647 168.753L283.485 168.812L287.252 173.706ZM242.677 146.678V108.69C242.623 106.589 240.931 104.978 238.82 104.978C236.73 104.978 235 106.654 234.984 108.749V146.678H242.677ZM242.677 177.607V156.896H234.984V177.607H212.355V102.506C212.355 98.407 215.659 95.1084 219.715 95.1084H257.945C262.012 95.1084 265.316 98.407 265.316 102.506V177.607L242.677 177.607Z" fill="#1F3E72"/>
</g>
<defs>
<clipPath id="clip0_9_59">
<rect width="342.936" height="183.676" fill="white" transform="translate(0.0644531 0.0527344)"/>
</clipPath>
</defs>
</svg>
