<svg width="188" height="128" viewBox="0 0 188 128" fill="none" xmlns="http://www.w3.org/2000/svg">
<g clip-path="url(#clip0_9_39)">
<path d="M173.594 127.051C164.802 127.051 159.588 122.551 159.189 116.071H167.595C167.595 118.231 168.792 121.107 173.993 121.285C177.598 121.285 179.593 119.126 179.593 117.502C179.193 114.984 175.988 114.805 172.796 114.255C169.191 113.732 166.398 113.003 164.389 112.109C161.596 110.664 159.986 107.596 159.986 104.363C159.986 98.5974 164.802 94.0978 173.195 94.0978C181.203 94.0978 186.403 98.2402 186.788 104.541H178.795C178.795 102.931 178.396 100.221 173.593 100.221C170.388 100.221 168.393 100.758 167.994 103.096C167.994 106.344 174.791 106.165 179.992 107.417C184.793 108.683 187.999 111.737 187.999 116.071C187.999 123.996 181.601 127.051 173.594 127.051ZM20.4043 73.8798L48.0046 57.8506L62.8087 83.25H25.6051" fill="#1F3E72"/>
<path d="M78.4453 126.096V94.0381Z" fill="#1F3E72"/>
<path d="M78.4453 126.096V94.0381" stroke="#1F3E72" stroke-width="8.07641"/>
<path d="M7.59538 110.541C7.59538 115.576 11.9978 119.718 16.7857 119.718C22.0003 119.718 25.9904 115.576 25.9904 110.541C25.9904 105.684 22.0003 101.364 16.7857 101.364C11.9978 101.364 7.59538 105.684 7.59538 110.541ZM16.3871 127.107C7.59475 127.107 0 119.718 0 110.541C0 101.364 7.59538 94.1544 16.3871 94.1544C19.9918 94.1544 23.1972 95.0625 25.9904 97.0296V94.5116H33.9981V126.377H25.991V124.396C23.5971 126.199 19.9918 127.107 16.3871 127.107ZM123.214 83.2433L84.8138 16.2655L112.413 0.0576172L160.418 83.2433M44.3997 110.541C44.3997 115.576 48.4042 119.718 53.6044 119.718C58.3923 119.718 62.8091 115.576 62.8091 110.541C62.8091 105.684 58.3923 101.364 53.6044 101.364C48.4036 101.364 44.3997 105.684 44.3997 110.541ZM53.2052 127.107C44.0005 127.107 36.805 119.718 36.805 110.541C36.805 101.364 44.0005 94.1544 53.2052 94.1544C56.7961 94.1544 60.0022 95.0625 62.8091 97.0296V83.5322H70.8031V126.377H62.8085V124.396C60.0016 126.199 56.7968 127.107 53.2052 127.107ZM52.8111 45.2532L80.8099 29.417L111.616 83.2414H82.4067V91.1664H74.4121V83.2414M182.813 91.4158C180.804 91.4158 178.81 89.6135 178.81 87.4533C178.81 85.2932 180.804 83.4908 182.813 83.4908C185.207 83.4908 186.817 85.2938 186.817 87.4533C186.817 89.6129 185.207 91.4158 182.813 91.4158ZM182.813 84.0417C180.804 84.0417 179.607 85.651 179.607 87.4533C179.607 89.2557 180.804 90.8794 182.813 90.8794C184.808 90.8794 186.005 89.2563 186.005 87.4533C186.005 85.6504 184.808 84.0417 182.813 84.0417Z" fill="#1F3E72"/>
<path d="M183.639 89.6273L182.841 87.825H182.043V89.6273H181.438V85.307H183.24C183.639 85.307 184.437 85.8578 184.437 86.5729C184.437 87.2879 184.038 87.6464 183.639 87.825L184.437 89.6273M182.841 85.8578H182.043V87.2886H182.841C183.639 87.2886 183.639 87.1099 183.639 86.5729C183.639 86.2019 183.639 85.8578 182.841 85.8578ZM129.98 110.541C129.98 115.576 133.984 119.718 139.184 119.718C143.986 119.718 148.375 115.576 148.375 110.541C148.375 105.684 143.986 101.364 139.184 101.364C133.983 101.364 129.98 105.684 129.98 110.541ZM138.772 127.107C129.581 127.107 122.385 119.718 122.385 110.541C122.385 101.364 129.581 94.1545 138.771 94.1545C142.377 94.1545 145.582 95.0625 148.375 97.0297V94.5117H155.984V126.377H148.376V124.396C145.582 126.199 142.377 127.107 138.772 127.107ZM93.2028 110.541C93.2028 115.576 97.6052 119.718 102.407 119.718C107.608 119.718 111.612 115.576 111.612 110.541C111.612 105.684 107.608 101.364 102.407 101.364C97.6052 101.364 93.2028 105.684 93.2028 110.541ZM111.612 83.5322H119.606V126.377H111.612V124.396C109.204 126.199 105.998 127.107 102.407 127.107C93.2028 127.107 85.6074 119.718 85.6074 110.541C85.6074 101.364 93.2028 94.1545 102.407 94.1545C105.998 94.1545 109.204 95.0625 111.612 97.0297V83.5322Z" fill="#1F3E72"/>
</g>
<defs>
<clipPath id="clip0_9_39">
<rect width="188" height="127.163" fill="white"/>
</clipPath>
</defs>
</svg>
