<svg width="633" height="102" viewBox="0 0 633 102" fill="none" xmlns="http://www.w3.org/2000/svg">
<path fill-rule="evenodd" clip-rule="evenodd" d="M0 99.2346L22.019 0.109375H61.3274L63.1222 55.4843L89.5832 0.109375H128.985L106.876 99.2346H78.3363L90.1479 45.9386L63.597 99.2346H43.0886L42.0491 45.9386L28.8204 99.2346H0ZM132.391 16.2658H158.942L162.532 0.109375H135.884L132.391 16.2658ZM140.516 99.3317L113.775 99.2346L130.122 25.8114H156.863L140.516 99.3317ZM241.817 25.8114H265.725L263.646 34.8823C266.955 30.8181 270.922 28.268 275.932 26.5667C279.953 25.2272 284.167 24.5566 288.406 24.5814L282.262 48.4887C280.752 48.4887 262.232 44.8956 256.467 73.1513L250.514 99.3245H225.28L241.817 25.8114Z" fill="#1F3E72"/>
<path fill-rule="evenodd" clip-rule="evenodd" d="M227.833 72.115C227.833 72.6797 219.424 102.162 182.475 101.41C132.956 100.371 145.81 20.995 202.034 23.8292C233.973 25.4333 232.369 51.9878 232.084 53.1244H204.491C204.868 52.0849 205.814 41.1221 197.024 41.3128C180.677 41.7875 169.052 82.3224 187.1 82.7037C195.416 82.9878 199.293 73.3486 200.049 72.1222H227.833V72.115ZM464.924 101.694C411.157 99.4248 427.314 20.2361 482.502 22.8833C534.38 25.4333 519.634 103.867 464.924 101.694ZM480.703 40.1726C462.846 36.5831 449.52 79.4846 466.536 82.9806C485.429 86.9514 498.097 43.6722 480.703 40.1726Z" fill="#1F3E72"/>
<path fill-rule="evenodd" clip-rule="evenodd" d="M565.662 14.9461C558.285 14.9461 556.875 17.7803 555.645 23.3552L555.166 25.8117H570.762L574.639 8.04763H599.014L595.234 25.8117H607.801L604.121 42.7271H591.547L584.649 74.95C584.368 76.7447 583.706 78.3489 584.368 80.3343C585.408 83.262 595.896 82.0391 595.896 82.0391L591.835 98.8609C591.835 98.8609 570.478 101.317 563.291 96.3072C560.08 94.1348 556.584 89.5994 558.76 79.8667L566.978 42.8242L552.332 42.7307L539.956 99.2385H513.682L525.968 42.7307H512.452L516.232 25.8153H529.367C531.727 16.3668 533.806 9.93948 539.665 5.02638C547.7 -1.49445 568.586 1.05563 568.586 1.05563L565.662 14.9461ZM329.797 74.1012L379.687 74.0076C379.687 74.0076 375.435 85.0639 391.124 85.161C401.99 85.161 406.241 72.7811 391.595 70.2311C384.888 69.001 358.901 64.6526 361.833 44.6189C364.293 28.1784 381.392 22.4129 400.105 22.697C438.378 23.1682 431.199 45.662 431.666 47.1726H406.151C406.151 47.1726 408.892 37.7241 397.365 37.7241C386.877 37.7241 384.319 47.1726 396.415 49.7227C411.161 52.9381 428.077 53.6934 429.016 72.6877C429.296 77.982 426.185 102.735 387.625 101.983C352.283 101.228 349.83 84.5963 350.773 76.849C344.345 90.3619 328.279 102.364 306.832 101.609C253.065 99.9075 269.412 20.2441 324.502 22.9883C349.546 24.2148 359.092 43.209 356.064 61.9191C355.592 65.2281 355.312 65.6992 354.362 65.9834L329.797 74.1012ZM322.517 40.0799C304.843 36.5839 291.618 79.2948 308.529 82.8879C327.247 86.7652 339.814 43.5795 322.517 40.0799ZM622.547 25.7182C635.305 25.7182 635.305 44.7124 622.547 44.7124C609.79 44.7124 609.79 25.7182 622.547 25.7182ZM622.547 27.4195C611.869 27.4195 611.869 42.9177 622.547 42.9177C633.316 42.9177 633.316 27.4195 622.547 27.4195ZM624.248 36.2997L626.137 40.0799H623.867L622.357 36.2997H621.029L620.468 40.364H618.479L620.087 30.2537H624.716C624.716 30.2537 627.266 30.9155 627.075 33.372C626.798 36.2997 624.439 36.2997 624.248 36.2997ZM623.77 31.5773H621.889L621.411 34.8863H623.299C623.299 34.8863 625.187 35.1704 625.378 33.2785C625.378 31.5773 623.77 31.5773 623.77 31.5773Z" fill="#1F3E72"/>
</svg>
